<svg xmlns="http://www.w3.org/2000/svg" xmlns:xlink="http://www.w3.org/1999/xlink" width="500" zoomAndPan="magnify" viewBox="0 0 375 374.999991" height="500" preserveAspectRatio="xMidYMid meet" version="1.2"><defs><clipPath id="42916c9419"><path d="M 149 80 L 211 80 L 211 142 L 149 142 Z M 149 80 "/></clipPath><clipPath id="b3d4094083"><path d="M 164.664062 162.664062 L 127.921875 125.917969 L 195.410156 58.425781 L 232.15625 95.171875 Z M 164.664062 162.664062 "/></clipPath><clipPath id="333261767e"><path d="M 127.675781 125.671875 L 164.417969 162.417969 L 231.910156 94.925781 L 195.164062 58.179688 Z M 127.675781 125.671875 "/></clipPath><clipPath id="9fe96734c3"><path d="M 110 106 L 146 106 L 146 142 L 110 142 Z M 110 106 "/></clipPath><clipPath id="c432784670"><path d="M 157.253906 132.664062 L 136.253906 153.660156 L 98.011719 115.414062 L 119.007812 94.417969 Z M 157.253906 132.664062 "/></clipPath><clipPath id="35a89782ba"><path d="M 136.371094 153.542969 L 157.371094 132.546875 L 119.125 94.300781 L 98.128906 115.296875 Z M 136.371094 153.542969 "/></clipPath><clipPath id="3efac5ca0c"><path d="M 316.253906 136.964844 L 367.664062 136.964844 L 367.664062 188.375 L 316.253906 188.375 Z M 316.253906 136.964844 "/></clipPath><clipPath id="4aadd6c862"><path d="M 341.957031 136.964844 L 316.253906 162.671875 L 329.105469 162.671875 L 329.105469 188.375 L 354.808594 188.375 L 354.808594 162.671875 L 367.664062 162.671875 Z M 341.957031 136.964844 "/></clipPath></defs><g id="e2c706f076"><g style="fill:#a8c241;fill-opacity:1;"><g transform="translate(10.412182, 250.314213)"><path style="stroke:none" d="M 95.640625 -50.109375 L 115.828125 -96.203125 L 142.3125 -96.203125 L 94.5 2.484375 L 72.78125 -42.859375 L 51.0625 2.484375 L -1.140625 -96.203125 L 28.765625 -96.203125 L 51.8125 -49.921875 L 60.578125 -68.578125 L 47.625 -96.203125 L 73.53125 -96.203125 Z M 95.640625 -50.109375 "/></g></g><g style="fill:#a8c241;fill-opacity:1;"><g transform="translate(146.626479, 250.314213)"><path style="stroke:none" d="M 22.859375 -113.171875 C 18.671875 -113.171875 15.019531 -114.691406 11.90625 -117.734375 C 8.789062 -120.785156 7.234375 -124.40625 7.234375 -128.59375 C 7.234375 -132.40625 8.789062 -135.832031 11.90625 -138.875 C 15.019531 -141.925781 18.671875 -143.453125 22.859375 -143.453125 C 27.429688 -143.453125 31.273438 -141.957031 34.390625 -138.96875 C 37.503906 -135.988281 39.0625 -132.53125 39.0625 -128.59375 C 39.0625 -124.40625 37.503906 -120.785156 34.390625 -117.734375 C 31.273438 -114.691406 27.429688 -113.171875 22.859375 -113.171875 Z M 36.578125 -96.203125 L 36.578125 0 L 9.53125 0 L 9.53125 -96.203125 Z M 36.578125 -96.203125 "/></g></g><g style="fill:#a8c241;fill-opacity:1;"><g transform="translate(187.776215, 250.314213)"><path style="stroke:none" d="M 64.578125 -97.921875 L 64.578125 -69.921875 C 62.046875 -70.804688 59.191406 -71.25 56.015625 -71.25 C 50.804688 -71.25 46.265625 -69.3125 42.390625 -65.4375 C 38.515625 -61.5625 36.578125 -55.753906 36.578125 -48.015625 L 36.578125 0 L 9.53125 0 L 9.53125 -96.203125 L 36.578125 -96.203125 L 36.578125 -89.546875 C 39.492188 -92.722656 42.859375 -94.976562 46.671875 -96.3125 C 50.484375 -97.644531 54.234375 -98.3125 57.921875 -98.3125 C 59.054688 -98.3125 60.128906 -98.3125 61.140625 -98.3125 C 62.160156 -98.3125 63.304688 -98.179688 64.578125 -97.921875 Z M 64.578125 -97.921875 "/></g></g><g style="fill:#a8c241;fill-opacity:1;"><g transform="translate(249.882075, 250.314213)"><path style="stroke:none" d="M 8.1875 -46.109375 L 8.1875 -96.203125 L 35.25 -96.203125 L 35.25 -48.390625 C 35.25 -41.398438 37.179688 -35.710938 41.046875 -31.328125 C 44.921875 -26.953125 49.59375 -24.765625 55.0625 -24.765625 C 59.125 -24.765625 62.898438 -25.492188 66.390625 -26.953125 C 69.890625 -28.421875 72.75 -30.898438 74.96875 -34.390625 C 77.1875 -37.878906 78.296875 -42.546875 78.296875 -48.390625 L 78.296875 -96.203125 L 105.171875 -96.203125 L 105.171875 0 L 78.296875 0 L 78.296875 -6.859375 C 75.503906 -3.804688 71.472656 -1.550781 66.203125 -0.09375 C 60.929688 1.363281 56.007812 2.09375 51.4375 2.09375 C 43.050781 2.09375 35.585938 -0.09375 29.046875 -4.46875 C 22.503906 -8.851562 17.390625 -14.695312 13.703125 -22 C 10.023438 -29.300781 8.1875 -37.335938 8.1875 -46.109375 Z M 8.1875 -46.109375 "/></g></g><g clip-rule="nonzero" clip-path="url(#42916c9419)"><g clip-rule="nonzero" clip-path="url(#b3d4094083)"><g clip-rule="nonzero" clip-path="url(#333261767e)"><path style=" stroke:none;fill-rule:nonzero;fill:#a8c241;fill-opacity:1;" d="M 195.238281 125.875 C 212.054688 109.058594 210.347656 80.085938 210.347656 80.085938 C 210.347656 80.085938 181.019531 78.023438 164.199219 94.839844 C 147.382812 111.660156 149.441406 140.988281 149.441406 140.988281 C 149.441406 140.988281 178.417969 142.695312 195.238281 125.875 "/></g></g></g><g clip-rule="nonzero" clip-path="url(#9fe96734c3)"><g clip-rule="nonzero" clip-path="url(#c432784670)"><g clip-rule="nonzero" clip-path="url(#35a89782ba)"><path style=" stroke:none;fill-rule:nonzero;fill:#a8c241;fill-opacity:1;" d="M 136.492188 115.191406 C 126.945312 105.644531 110.496094 106.613281 110.496094 106.613281 C 110.496094 106.613281 109.324219 123.261719 118.875 132.808594 C 128.421875 142.359375 145.074219 141.1875 145.074219 141.1875 C 145.074219 141.1875 146.042969 124.738281 136.492188 115.191406 "/></g></g></g><g clip-rule="nonzero" clip-path="url(#3efac5ca0c)"><g clip-rule="nonzero" clip-path="url(#4aadd6c862)"><path style=" stroke:none;fill-rule:nonzero;fill:#a8c241;fill-opacity:1;" d="M 316.253906 136.964844 L 367.664062 136.964844 L 367.664062 188.375 L 316.253906 188.375 Z M 316.253906 136.964844 "/></g></g></g></svg>